<svg xmlns="http://www.w3.org/2000/svg" x="0px" y="0px" width="100" height="100" viewBox="0,0,256,256">
<g fill="#f4f3f3" fill-rule="nonzero" stroke="none" stroke-width="1" stroke-linecap="butt" stroke-linejoin="miter" stroke-miterlimit="10" stroke-dasharray="" stroke-dashoffset="0" font-family="none" font-weight="none" font-size="none" text-anchor="none" style="mix-blend-mode: normal"><g transform="scale(5.12,5.12)"><path d="M25,2c-7.16752,0 -13,5.83248 -13,13v6h-4c-1.64497,0 -3,1.35503 -3,3v23c0,1.64497 1.35503,3 3,3h34c1.64497,0 3,-1.35503 3,-3v-23c0,-1.64497 -1.35503,-3 -3,-3h-4v-6c0,-7.16752 -5.83248,-13 -13,-13zM25,4c6.08648,0 11,4.91352 11,11v6h-22v-6c0,-6.08648 4.91352,-11 11,-11zM8,23h34c0.56503,0 1,0.43497 1,1v23c0,0.56503 -0.43497,1 -1,1h-34c-0.56503,0 -1,-0.43497 -1,-1v-23c0,-0.56503 0.43497,-1 1,-1zM13,34c-1.10457,0 -2,0.89543 -2,2c0,1.10457 0.89543,2 2,2c1.10457,0 2,-0.89543 2,-2c0,-1.10457 -0.89543,-2 -2,-2zM21,34c-1.10457,0 -2,0.89543 -2,2c0,1.10457 0.89543,2 2,2c1.10457,0 2,-0.89543 2,-2c0,-1.10457 -0.89543,-2 -2,-2zM29,34c-1.10457,0 -2,0.89543 -2,2c0,1.10457 0.89543,2 2,2c1.10457,0 2,-0.89543 2,-2c0,-1.10457 -0.89543,-2 -2,-2zM37,34c-1.10457,0 -2,0.89543 -2,2c0,1.10457 0.89543,2 2,2c1.10457,0 2,-0.89543 2,-2c0,-1.10457 -0.89543,-2 -2,-2z"></path></g></g>
</svg>